<svg id="a25e9af8-8cc2-4502-b6d7-254426e39642" data-name="Layer 1" xmlns="http://www.w3.org/2000/svg" viewBox="0 0 50 50"><defs><style>.ad909fbb-a043-4aef-b3fa-3861fdb39ed6{fill:#fff;}</style></defs><path class="ad909fbb-a043-4aef-b3fa-3861fdb39ed6" d="M36.21117,31.86674V26.91646h9.73529V49.177H10.88917V41.89323H19.3141V36.88h8.181V31.86674Zm-23.9526-10.66-.74766-.606a.07464.07464,0,0,0-.03935,0,.05505.05505,0,0,0-.03935.01967l-1.27889,1.574a.07484.07484,0,0,0,0,.03935.05906.05906,0,0,0,.02361.03935l.73192.58632a.07864.07864,0,0,0,.04329,0,.04331.04331,0,0,0,.03541-.01967l1.27889-1.574a.05113.05113,0,0,0,0-.03935.05508.05508,0,0,0-.01968-.03935ZM10.114,13.919,12.715,16.02426l1.212-1.42842a.52729.52729,0,0,1,.35022-.19282.5391.5391,0,0,1,.3935.11019c.547-.62568,1.09-1.26709,1.62517-1.8967a16.6338,16.6338,0,0,1,1.18051-1.38513,6.86687,6.86687,0,0,1,1.26315-1.09,5.60728,5.60728,0,0,1,1.62124-.724h0a9.01106,9.01106,0,0,1,2.16034-.27939h.03148c.59813-.03148,1.29856,0,1.88488,0h.72405a7.18871,7.18871,0,0,1,5.54054,2.56171h0c.23217.22823.45253.44466.65715.6178a2.20792,2.20792,0,0,0,.57845.39351h0c.09444.03148.34629-.09445.62567-.23611h0a5.78615,5.78615,0,0,1,.68864-.30693c.98376-.45253,1.99113-.9995,2.97095-1.40088a1.38907,1.38907,0,0,1,.65716-.09837,1.85334,1.85334,0,0,1,.67682.19675,2.0146,2.0146,0,0,1,.42892.29119,2.15991,2.15991,0,0,1,.35022.39351v.01967a2.09345,2.09345,0,0,1,.25184.484h0a2.08158,2.08158,0,0,1-.063,1.49925,2.06976,2.06976,0,0,1-.29906.55484,2.12886,2.12886,0,0,1-.968.72405c-.73586.35809-1.47564.72405-2.21937,1.04279a11.04218,11.04218,0,0,1-1.936.69257,5.87135,5.87135,0,0,1-2.30987,0h-.07083a6.10337,6.10337,0,0,1-2.38463-1.39694l-.39351,3.78944c.303.1574.60206.29513.89326.421.35808.15347.70043.28726,1.03491.41712h0c2.13279.83029,3.88782,1.51892,4.47021,4.77714.07083.3935.13772,1.18051.19282,2.08557.0905,1.35759.1574,2.94341.17314,3.52186h0a.22438.22438,0,0,1,0,.07083.27153.27153,0,0,1-.25972.20069H34.405a2.20006,2.20006,0,0,1-.25184.02361H31.11529c-.16527,0-.244,0-.34628-.11018a.39351.39351,0,0,1-.08658-.30693v-.15741c-.03541-.65715-.10624-1.759-.17707-2.75453-.05509-.7083-.10625-1.34578-.14953-1.68419a2.83025,2.83025,0,0,0-.07083-.34629,1.77564,1.77564,0,0,0-.12592-.31087l-.03542-.063c-.11805-.21642-.22429-.41711-.30693-.44859h0c-.15347-.063-.35809-.12986-.59419-.20069s-.58239-.16527-.89326-.24791-.67682-.1692-1.05459-.25577l-.89719-.20069c-.25971,1.08214-.46827,2.2233-.67683,3.42349a39.93211,39.93211,0,0,1-2.10524,8.26359.27545.27545,0,0,1-.34235.15346,5.05961,5.05961,0,0,1-.846.05509c-.83816,0-1.999,0-2.49875-.03148h-.11018c-.16921,0-.25578,0-.35022-.13772h0a.39348.39348,0,0,1-.04328-.33448l.02754-.12986c.05116-.26364.13379-.67289.24-1.18051l.44072-2.05016c.2912-1.34972.68864-3.148,1.07427-4.87551.49975-2.25872.94441-4.23017,1.09788-4.907a4.21462,4.21462,0,0,1-.39351-.49975,5.22187,5.22187,0,0,1-.44072-.69651,3.6594,3.6594,0,0,1-.31874-.87751,2.87669,2.87669,0,0,1-.04329-.97589l.67683-5.269a1.574,1.574,0,0,0-.68863.16527h0a2.38064,2.38064,0,0,0-.58239.46434,8.3146,8.3146,0,0,0-.59025.71617h0c-.16134.20463-.33055.425-.5391.669-.50763.59026-1.01918,1.20412-1.53467,1.79831a.5273.5273,0,0,1-.08264.52337L16.49267,19.0936l2.5932,2.10524a.74372.74372,0,0,1,.26758.48008.7319.7319,0,0,1-.16134.543l-1.12542,1.42449a16.52688,16.52688,0,0,1-2.93161-.49582,14.55941,14.55941,0,0,1-2.73485-1.027l.44859-.55484a.59419.59419,0,0,0-.084-.8361l-.00254-.00207-.86571-.70437h0a.59419.59419,0,0,0-.8361.084l-.00206.00254-.44072.543a14.73248,14.73248,0,0,1-1.5268-2.40825A16.41662,16.41662,0,0,1,7.993,15.38285l1.09788-1.34972a.73979.73979,0,0,1,1.03885-.11018Zm3.86815,1.94391-.59419.70044,2.45153,1.96752.45646-.52729c-.6965-.59813-1.65665-1.456-2.27052-2.09738l-.04328-.04722Zm3.41561,8.57053-3.05752,3.76977a.71619.71619,0,0,1-.49582.26758.74372.74372,0,0,1-.543-.1574l-8.9719-7.26409a.74373.74373,0,0,1-.27152-.49975.72015.72015,0,0,1,.16134-.5391l3.08507-3.80518a17.07012,17.07012,0,0,0,.97983,2.361A15.20869,15.20869,0,0,0,10.055,21.32083l-.48795.60206a.59418.59418,0,0,0,.0875.83574l.003.00242.86571.70438a.59419.59419,0,0,0,.8361-.084l.00206-.00253.50762-.62568-.02361.04329A15.272,15.272,0,0,0,14.95407,23.977,16.5901,16.5901,0,0,0,17.39773,24.43345ZM34.22,30.218ZM24.77594,1.09865A3.59272,3.59272,0,0,1,26.19255.82319,3.65172,3.65172,0,0,1,29.58062,3.078,3.59271,3.59271,0,0,1,29.864,4.47885a3.65172,3.65172,0,0,1-2.25478,3.38807,3.5927,3.5927,0,0,1-1.40088.28332,3.68708,3.68708,0,0,1-1.40087-.27545A3.63988,3.63988,0,0,1,22.8399,5.90727a3.59253,3.59253,0,0,1-.28726-1.41268,3.65171,3.65171,0,0,1,2.239-3.38807Z"/></svg>