<svg id="b473624a-cf79-489f-9421-f7f18944d101" data-name="Layer 1" xmlns="http://www.w3.org/2000/svg" viewBox="0 0 56.70796 50"><defs><style>.a89eb4cb-ae24-4fc5-a8d7-4114d6ce2abc{fill:#fff;fill-rule:evenodd;}</style></defs><path class="a89eb4cb-ae24-4fc5-a8d7-4114d6ce2abc" d="M48.02758,6.97918C44.31581,5.40283,40.59982,3.97361,36.96371.82511c1.50909,5.21246-2.79119,17.10024-8.65521,30.77874C24.37814,20.97716,19.63648,9.99736,19.771.82511A20.17661,20.17661,0,0,1,14.66363,4.394L8.59784,7.07166c-1.79914.76926-2.45911,2.77017-2.58522,5.35118C4.12521,24.64269,2.469,36.86676,2.52784,49.08661h8.92l1.25268-19.80314a38.10512,38.10512,0,0,1,1.35776,5.637,32.85994,32.85994,0,0,1,.10509,10.59727l-.39094,3.56885h13.4263L28.38,42.60046l1.362,6.57443H43.05052l-.3489-3.58567a33.68154,33.68154,0,0,1,.1177-10.10545c.30687-1.99671.72723-4.03545,1.24006-6.10362l1.20223,19.79053h8.92a209.13556,209.13556,0,0,0-3.48058-35.95336c.08827-3.47218-.8113-5.54455-2.67349-6.23814ZM29.53175,8.0553l2.71973,7.247-1.48808.887.41616,2.74495h0a.29439.29439,0,0,1-.09668.26062l-2.98456,2.55159a.28652.28652,0,0,1-.36991.021l-3.14009-2.37082a.2928.2928,0,0,1-.12191-.27744L26.3202,6.72276a.28757.28757,0,0,1,.28584-.26062h2.43389a.28571.28571,0,0,1,.28584.248l.206,1.34515ZM25.70648,1.63641,26.74056,4.5495h2.07238l1.19382-2.90889a4.02978,4.02978,0,0,0-2.20689-.744,3.5809,3.5809,0,0,0-2.09339.73984Zm2.64826,37.72728a1.0425,1.0425,0,1,1-1.04249,1.0425,1.04232,1.04232,0,0,1,1.04249-1.0425Zm7.65055-21.50981h6.94435a.11129.11129,0,0,1,.10929.1093v1.53431a.11128.11128,0,0,1-.10929.10929H36.00529a.11128.11128,0,0,1-.10929-.10929V17.96318a.11123.11123,0,0,1,.10929-.1093Zm-7.65055,14.906a1.0425,1.0425,0,1,1-1.04249,1.0425,1.04232,1.04232,0,0,1,1.04249-1.0425Z"/></svg>