<svg id="fdf3004f-7b40-4d05-8ac1-f52eb34560b3" data-name="Layer 1" xmlns="http://www.w3.org/2000/svg" viewBox="0 0 89.84071 50"><defs><style>.b677aa95-d6e4-4a37-b788-b86d68122862{fill:#fff;fill-rule:evenodd;}</style></defs><path class="b677aa95-d6e4-4a37-b788-b86d68122862" d="M57.456,26.92758l-.15765-8.33374-9.65939,2.7803a12.00973,12.00973,0,0,1-5.21665,0l-9.2008-2.809v8.41974c.26513,3.08843,9.122,4.02714,11.83778,4.15612,2.14972.10749,10.74859-1.0247,11.90944-2.8018a3.2532,3.2532,0,0,0,.45861-1.43315ZM2.6668,45.60147h8.74935A1.58364,1.58364,0,0,1,10.241,44.08234V2.30614A1.56931,1.56931,0,0,1,11.8031.73684H77.52a1.57647,1.57647,0,0,1,1.5693,1.5693v41.769A1.57645,1.57645,0,0,1,77.907,45.5943h9.165a1.83447,1.83447,0,0,1,0,3.66886H2.6668a1.83443,1.83443,0,0,1,0-3.66169ZM12.921,3.19469H76.63145v40.4362H12.921ZM42.30044,46.28221h5.1235a.88855.88855,0,0,1,.88139.88139h0a.88856.88856,0,0,1-.88139.867H42.26462a.88855.88855,0,0,1-.88139-.88139h0a.88855.88855,0,0,1,.88139-.88138ZM19.52059,37.40387a1.32566,1.32566,0,1,1,0-2.64415h50.7047a1.32566,1.32566,0,0,1,0,2.64415Zm.22931-7.66016a1.32566,1.32566,0,0,1,0-2.64415H29.96823v.35829a4.90852,4.90852,0,0,0,.89571,2.28586Zm44.87179-2.64415H69.996a1.32566,1.32566,0,0,1,0,2.64415H59.89948a4.60745,4.60745,0,0,0,.27946-.56609h1.039a3.86954,3.86954,0,0,0,2.68715-1.08919l.05732-.05733a4.01972,4.01972,0,0,0,.71658-.93154ZM61.33262,14.35173v7.16573h.22214a.27946.27946,0,0,1,.27946.27946v1.94191a.27946.27946,0,0,1-.27946.27946h-.22214v.67358a.62342.62342,0,0,1,.5016.60909h0a.62341.62341,0,0,1-.61625.61625H60.10728a.62341.62341,0,0,1-.62342-.61625h0a.62342.62342,0,0,1,.50876-.60909v-.67358h-.2293a.27946.27946,0,0,1-.27946-.27946V21.81125a.27946.27946,0,0,1,.27946-.27946h.2293V14.78884L48.2695,18.43619a13.18485,13.18485,0,0,1-6.36317,0L29.008,14.57387l-1.17518-.35113c-1.43315-.59475-1.08919-1.99207.26513-2.31453L42.69456,7.54428a7.48822,7.48822,0,0,1,4.52157,0l14.36729,4.29944c1.56213.37979,1.87025,1.82726.05732,2.422l-.30812.09315Z"/></svg>