<svg id="b283bfa5-1fe6-4901-be2d-905b9753a379" data-name="Layer 1" xmlns="http://www.w3.org/2000/svg" viewBox="0 0 50 50"><defs><style>.bf66d2aa-b14b-4420-960c-e18330b3f113{fill:#fff;fill-rule:evenodd;}</style></defs><path class="bf66d2aa-b14b-4420-960c-e18330b3f113" d="M33.70374,34.12325c-.32923-.29787-.776-.682-1.24636-1.08958a24.86991,24.86991,0,0,1-2.68867-2.51622l-.051.03527A7.17991,7.17991,0,0,1,25.4731,31.7834a7.05369,7.05369,0,0,1-4.04085-1.17973,8.63546,8.63546,0,0,1-.729-.54871,24.88846,24.88846,0,0,1-2.9356,2.73179c-.69372.5879-1.33258,1.12877-1.66964,1.458a26.70111,26.70111,0,0,0-3.08845,4.78944l3.61756-.09014,8.32078,7.23511,8.32077-7.23511,3.61756.09014a26.32177,26.32177,0,0,0-3.1825-4.91094Zm-15.05814-7.58a13.69846,13.69846,0,0,0,3.31577,1.556,1.77792,1.77792,0,0,1,.533-.70548,3.93672,3.93672,0,0,1,3.52349.03527,1.65243,1.65243,0,0,1,.15286,2.05766c-.70549.94848-3.26874.4468-4.80121.03135a7.8193,7.8193,0,0,0,.729.56047,5.86071,5.86071,0,0,0,3.37848.9916,6.05493,6.05493,0,0,0,3.57445-1.03471c.16853-.11758.33314-.23908.49384-.37234a.46511.46511,0,0,1,.22732-.196,16.76249,16.76249,0,0,0,1.71276-1.85777l.96416-1.1562c.11758-.1411.15677-.18813.19988-.23908.11758-.13718.25084-.29395.38018-.45465a.42458.42458,0,0,1,.13718-.10974,10.74714,10.74714,0,0,0,.35666-1.603,7.64112,7.64112,0,0,0-.54087-4.93838,5.75954,5.75954,0,0,0-2.81017-2.75138c1.17972,1.3169,2.15564,2.5946,1.90088,3.645a31.34181,31.34181,0,0,0-4.46806-4.10748,11.11647,11.11647,0,0,1-5.95349-6.64329c-4.76985,4.762-5.60075,10.33531-3.83312,16.39855a.42641.42641,0,0,1,.15677.11366l.67021.77995Zm.8113,2.27322a18.52621,18.52621,0,0,1-3.37064-2.34769l-1.93615.051a4.58649,4.58649,0,0,1-.678-1.0543,2.28661,2.28661,0,0,1-.45465-.09407c-1.86169-.584-3.40591-4.72281-3.1002-6.67465.17245-1.10525.56439-1.505,1.19932-1.748a.85919.85919,0,0,1-.047-.28611V12.49628A9.43272,9.43272,0,0,1,12.30409,7.993a13.19061,13.19061,0,0,1,3.32753-3.935A15.07415,15.07415,0,0,1,25.15172.92245a14.73217,14.73217,0,0,1,9.37116,3.3432,12.18664,12.18664,0,0,1,3.04142,3.9899A11.097,11.097,0,0,1,38.697,13.00188v3.44119a.88485.88485,0,0,1-.88578.88577.87115.87115,0,0,1-.69372-.33707,17.178,17.178,0,0,1-1.27771,9.42212H33.63319c-.051.05879-.098.11758-.145.17245l-.196.23124-.96416,1.15621a17.1635,17.1635,0,0,1-1.799,1.944,26.87119,26.87119,0,0,0,2.5711,2.36729c.33706.29.66628.57223.9524.82306a48.446,48.446,0,0,1,7.81518,3.60972,7.908,7.908,0,0,1,3.21386,3.108,17.97008,17.97008,0,0,1,2.16348,6.87453c.22341,2.36337.20381,2.25755-2.06549,2.30458-11.96185.23908-28.61908-.19989-40.32226,0-2.12821.03527-2.34769.18813-2.12429-2.84153.72508-3.43726.31355-2.98262,2.10469-6.33758a7.93263,7.93263,0,0,1,3.21387-3.108,48.05274,48.05274,0,0,1,7.86221-3.62931c.35274-.31355.78-.678,1.23068-1.06215a21.00145,21.00145,0,0,0,2.85328-2.64556q-.28219-.27042-.54087-.56438ZM36.92152,15.83557V13.0058a9.32093,9.32093,0,0,0-.9524-3.986,10.3874,10.3874,0,0,0-2.59069-3.402,12.94841,12.94841,0,0,0-8.24631-2.93168,13.3102,13.3102,0,0,0-8.407,2.75531,11.40274,11.40274,0,0,0-2.87681,3.39807,7.69259,7.69259,0,0,0-1.01119,3.66067v3.56269c.96024-4.62091,2.91992-7.98763,5.96525-9.99826,2.24187-1.48151,3.57837-1.56382,6.19257-1.56382,2.285,0,3.68419-.051,5.63211,1.23068a15.5099,15.5099,0,0,1,6.29447,10.10408Zm-14.772,26.048,1.65-5.72225-.80739-.88577a1.33851,1.33851,0,0,1-.243-1.39529c.439-.86617,1.34433-.70548,2.19091-.70548.88577,0,1.97927-.16853,2.25755.94064a1.47,1.47,0,0,1-.2822,1.16013l-.80738.88577,1.65,5.72225L24.95575,44.098,22.1495,41.88356Z"/></svg>